<svg id="789222bb-e267-4abe-814d-54a8aef681c3" data-name="Layer 1" xmlns="http://www.w3.org/2000/svg" viewBox="0 0 180 200"><defs><style>.\33 8cecb54-c2e0-4785-8d7e-7ab16c683dc7{fill:#fff;}</style></defs><title>bug</title><path class="38cecb54-c2e0-4785-8d7e-7ab16c683dc7" d="M180,170.36068q-11.616,12.28441-32.70017,20.961Q126.21347,200.002,93.05548,200q-41.41,0-67.23213-22.1631Q-.00073,155.67653,0,120.29343V79.70607q0-35.11209,25.136-57.41Q50.26935.00125,89.84707,0q42.63078,0,64.40617,16.62183,21.772,16.62233,21.01,45.46107l-.30635.80108H126.51909q0-14.28486-8.70958-21.22852-8.70982-6.94067-26.2819-6.94266-18.03185,0-29.03224,12.41668Q51.49377,59.54616,51.494,79.439v40.85438q0,20.29592,10.92526,32.64385,10.92235,12.35092,30.6362,12.34992,14.211,0,22.38566-2.00269a38.29894,38.29894,0,0,0,12.91167-5.34051v-34.7133H88.93V93.32437H180Z"/></svg>