<svg xmlns="http://www.w3.org/2000/svg" viewBox="0 0 83.25 83.51507"><g id="abe33048-bf3e-4957-8602-8272272e1cd0" data-name="Layer 2"><g id="2d8befdb-0011-4aaf-9754-f838c29af263" data-name="Layer 1"><path d="M83.09491,83.51507c.05365-2.205.15509-6.602.15509-8.28186,0-4.66663-3.65314-9.06781-7.15314-11.69281C72.47333,60.82274,65.25,58.00689,65.25,58.00689a13.26258,13.26258,0,0,0-2-8.75c-.625-3.125,1-6.5.875-10.5s-1.375-4.75-1.5-9.375-1.125-10.5-2-12.75-4.25-6.375-4.25-6.375a19.38936,19.38936,0,0,0-2.625-5.625c-2-3-7.875-3.03052-7.875-3.03052C39.29224-2.2284,31.5,1.63189,29.5,4.63189a19.38936,19.38936,0,0,0-2.625,5.625s-3.375,4.125-4.25,6.375-1.875,8.125-2,12.75-1.375,5.375-1.5,9.375,1.5,7.375.875,10.5a13.26258,13.26258,0,0,0-2,8.75S10.77667,60.82274,7.15314,63.5404C3.65314,66.1654,0,70.56658,0,75.23321,0,76.91308.1015,81.31.15515,83.51507Z"/></g></g></svg>  
