<svg id="aceb6184-19b4-4c06-a3ae-2ccbc28e733d" data-name="Layer 1" xmlns="http://www.w3.org/2000/svg" viewBox="0 0 800 200.06378"><defs><style>.\36 494ec93-403b-4bf6-a7d0-34fb53c5e87f{fill:#fff;}</style></defs><title>logo</title><path class="6494ec93-403b-4bf6-a7d0-34fb53c5e87f" d="M769.33223,23.42787Q738.59135.07212,689.66031.06988q-49.3276,0-79.99339,23.358Q579.01278,46.78735,579,82.55771V93H473v30h47v34.97175a54.529,54.529,0,0,1-15.39309,5.33908c-6.37529,1.33477-15.2474,2.00216-26.32833,2.00216-15.36931,0-27.64977-4.11488-36.16641-12.34663C433.59212,144.7366,429,133.85822,429,120.33122V79.48774c0-13.25756,4.54989-24.02537,13.12833-32.301s20.02684-12.41337,34.08707-12.41337c13.70022,0,24.01356,1.84639,30.805,6.47227C513.81183,45.87356,517.2725,53,517.2725,62h56.65366l.35831-.33232c.59416-19.2207-7.59706-34.13607-24.57366-45.21467C532.73138,5.37491,507.62139-.04725,474.38028-.04725q-46.28991,0-75.68714,22.34874Q376.29571,39.284,370.97925,63.73711q-6.14384-23.41533-28.36716-40.32388Q311.87121.05748,262.90362.06256c-32.88394,0-59.18235,7.79115-79.615,23.36165C162.85361,38.9972,153,58.71163,153,82.55771v34.971C153,134.68754,157.57122,149,168.10116,162H61V3H0V197H174V168.03339c2,3.02807,5.83684,5.92946,9.48237,8.69139,20.49109,15.52916,47.00721,23.29175,80.01133,23.29175,32.76431,0,59.18768-7.76259,79.503-23.29175,14.71562-11.24874,24.01524-24.7166,28.0706-40.37992q5.46106,24.60074,28.45887,41.51448,30.20087,22.15819,78.62126,22.15719c25.85325,0,47.08352-2.89067,63.52549-8.676C558.11491,185.55718,571,178.57254,580,170.38512V128.25063c2,19.16672,12.55123,35.3327,29.89691,48.47415q30.73578,23.29374,80.2004,23.29175c32.76374,0,59.20967-7.76259,79.52444-23.29175C789.93425,161.19811,800,141.46642,800,117.5287v-34.971Q800,46.7886,769.33223,23.42787ZM313,117.5287c0,14.06041-4.28894,25.53944-12.98474,34.43658q-13.048,13.3487-36.78537,13.34771c-16.32461,0-28.59967-4.44857-37.3567-13.34771C217.11559,143.06814,213,131.58911,213,117.5287V82.29076c0-13.96877,4.06981-25.38106,12.70949-34.23637,8.6374-8.85331,20.99326-13.281,37.31787-13.281,15.9646,0,28.20317,4.45056,36.9602,13.34771C308.74515,57.02026,313,68.40914,313,82.29076Zm427,0c0,14.06041-4.39316,25.53944-13.089,34.43658q-13.0471,13.3487-36.83635,13.34771c-16.32461,0-29.02235-4.44857-37.77938-13.34771C643.53827,143.06814,639,131.58911,639,117.5287V82.29076c0-13.96877,4.4653-25.38106,13.10554-34.23637,8.63684-8.85331,21.19072-13.281,37.51646-13.281,15.964,0,28.40641,4.45056,37.16344,13.34771C735.54248,57.02026,740,68.40914,740,82.29076Z" transform="translate(0 0.04725)"/></svg>