<svg xmlns="http://www.w3.org/2000/svg" viewBox="0 0 84.43536 85.65624"><g id="41421666-9a32-45a2-ad5d-ccd0afe4efed" data-name="Layer 2"><g id="1f0f3dae-cfe8-48de-ab94-3f4a59da9007" data-name="Layer 1"><path d="M84.43536,85.65624c-.08954-3.54626-.34784-13.29858-.551-16.279-.25-3.66669-1.16669-6.58337-6.33331-9.83337s-14.41669-3.41663-18-4.33331-4.58337-1.75-4.91669-3.33331a2.42392,2.42392,0,0,0-1.91669-1.83337l.16669-6.08331c1.6875-1.9375,2.02081-3.75,2.6875-5.75s1.89581-5,1.89581-5c1.08337-.41669,2.33337-3.5,2.83337-6.16669s-1.5-2.66663-1.5-2.66663c1.58331-4.5.58331-7,.58331-7,1-7-1-8.16669-1-8.16669-.66669-3.5-1.66669-3.66669-3.16669-5.16669s-9.12494-6.08331-14.16663-3a13.82444,13.82444,0,0,0-11.83331,3c-1.5,1.5-2.5,1.66669-3.16669,5.16669,0,0-2,1.16669-1,8.16669,0,0-1,2.5.58331,7,0,0-2,0-1.5,2.66663s1.75,5.75,2.83337,6.16669c0,0,1.22913,3,1.89581,5s1,3.8125,2.6875,5.75l.16669,6.08331A2.42392,2.42392,0,0,0,29.801,51.87725c-.33331,1.58331-1.33331,2.41663-4.91669,3.33331s-12.83331,1.08331-18,4.33331S.801,65.71056.551,69.37725C.34784,72.35766.08954,82.11,0,85.65624Z"/></g></g></svg>
